<svg id="radar" width="650" height="650" xmlns="http://www.w3.org/2000/svg" version="1.1">
  <g transform="translate(325, 325)">

    <g id="techniques" class="quadrant">
      <g>
        <path d="M 0 -325 a 325 325 0 0 0 -325 325 l 325 0 z" />
        <path d="M 0 -290 a 290 290 0 0 0 -290 290 l 290 0 z" />
        <path d="M 0 -285 a 285 285 0 0 0 -285 285 l 285 0 z" />
        <path d="M 0 -225 a 225 225 0 0 0 -225 225 l 225 0 z" />
        <path d="M 0 -110 a 110 110 0 0 0 -110 110 l 110 0 z" />
      </g>
    </g>

    <g id="tools" class="quadrant">
      <g transform="rotate(90 0 0)">
        <path d="M 0 -325 a 325 325 0 0 0 -325 325 l 325 0 z" />
        <path d="M 0 -290 a 290 290 0 0 0 -290 290 l 290 0 z" />
        <path d="M 0 -285 a 285 285 0 0 0 -285 285 l 285 0 z" />
        <path d="M 0 -225 a 225 225 0 0 0 -225 225 l 225 0 z" />
        <path d="M 0 -110 a 110 110 0 0 0 -110 110 l 110 0 z" />
      </g>
    </g>

    <g id="languages" class="quadrant">
      <g transform="rotate(180 0 0)">
        <path d="M 0 -325 a 325 325 0 0 0 -325 325 l 325 0 z" />
        <path d="M 0 -290 a 290 290 0 0 0 -290 290 l 290 0 z" />
        <path d="M 0 -285 a 285 285 0 0 0 -285 285 l 285 0 z" />
        <path d="M 0 -225 a 225 225 0 0 0 -225 225 l 225 0 z" />
        <path d="M 0 -110 a 110 110 0 0 0 -110 110 l 110 0 z" />
      </g>
    </g>

    <g id="platforms" class="quadrant">
      <g transform="rotate(270 0 0)">
        <path d="M 0 -325 a 325 325 0 0 0 -325 325 l 325 0 z" />
        <path d="M 0 -290 a 290 290 0 0 0 -290 290 l 290 0 z" />
        <path d="M 0 -285 a 285 285 0 0 0 -285 285 l 285 0 z" />
        <path d="M 0 -225 a 225 225 0 0 0 -225 225 l 225 0 z" />
        <path d="M 0 -110 a 110 110 0 0 0 -110 110 l 110 0 z" />
      </g>
    </g>

  </g>
</svg>
